<svg xmlns="http://www.w3.org/2000/svg" width="210.19" height="185.15" viewBox="0 0 210.19 185.15"><defs><style>.a{fill:none;}.a,.b{stroke:#000;stroke-miterlimit:10;stroke-width:4px;}.b,.c{fill:#fff;}</style></defs><title>vega2</title><polygon class="a" points="105.1 6.46 127.13 74.1 203.21 72.66 140.75 113.03 165.73 179.78 105.1 137.09 44.46 179.78 69.44 113.03 6.99 72.66 83.06 74.1 105.1 6.46"/><path class="b" d="M251.81,438.56h27.55A23.48,23.48,0,0,0,294.24,433a20.9,20.9,0,0,0,8.09-13.23,15.2,15.2,0,0,0-3.78-13.23c-3.34-3.65-7.82-5.51-13.33-5.51h-7.14l.62-3.92H300l2.7-17.05H261.07l-5.45,34.44H272c2.32,0,3.45,1.27,3.1,3.48a3.87,3.87,0,0,1-4.19,3.4H254.52Z" transform="translate(-200.76 -303.69)"/><path class="c" d="M323.59,399.07q0-1.65-1.76-1.65H318v3.31h3.83Q323.59,400.73,323.59,399.07Z" transform="translate(-200.76 -303.69)"/><path class="c" d="M324.2,411.23q0-1.9-2-1.9H318v3.76h4.23a1.9,1.9,0,0,0,1.45-.56A1.84,1.84,0,0,0,324.2,411.23Z" transform="translate(-200.76 -303.69)"/><path class="b" d="M307.58,438.56h38.59c5.64,0,10.19-1.36,13.5-4a12.4,12.4,0,0,0,4.92-10.19c0-7-3-12-9.26-15.25L354,408.4l1.28-.76c5.2-3.09,7.73-7,7.73-12.07,0-4.23-2-7.78-6-10.84a23.67,23.67,0,0,0-14.68-4.63H307.58Z" transform="translate(-200.76 -303.69)"/></svg>